<?xml version="1.0" encoding="UTF-8" standalone="no"?>
<!-- Created with Inkscape (http://www.inkscape.org/) -->

<svg
   version="1.1"
   id="svg1"
   width="892.66669"
   height="139.39999"
   viewBox="0 0 892.66669 139.39999"
   xmlns="http://www.w3.org/2000/svg"
   xmlns:svg="http://www.w3.org/2000/svg">
  <defs
     id="defs1" />
  <g
     id="g1">
    <g
       id="group-R5">
      <path
         id="path2"
         d="M 671.047,818.762 1167.06,568.582 1048.47,922.707 444.98,1042.72 671.047,818.762"
         style="fill:#c62f23;fill-opacity:1;fill-rule:nonzero;stroke:none"
         transform="matrix(0.13333333,0,0,-0.13333333,0,139.4)" />
      <path
         id="path3"
         d="M 564.219,810.195 344.297,1028.08 24.1016,701.73 Z"
         style="fill:#c62f23;fill-opacity:1;fill-rule:nonzero;stroke:none"
         transform="matrix(0.13333333,0,0,-0.13333333,0,139.4)" />
      <path
         id="path4"
         d="M 641.242,742.785 0,613.996 371.68,108.129 H 912.813 L 1162.56,479.836 641.242,742.785"
         style="fill:#c62f23;fill-opacity:1;fill-rule:nonzero;stroke:none"
         transform="matrix(0.13333333,0,0,-0.13333333,0,139.4)" />
      <path
         id="path5"
         d="m 1921.79,607.777 c -24.79,5.86 -45.17,13.754 -61.06,23.664 l 34.23,77.5 c 15.01,-8.703 31.83,-15.703 50.5,-20.961 18.62,-5.253 36.5,-7.871 53.59,-7.871 14.73,0 25.25,1.411 31.55,4.282 6.3,2.851 9.45,7.136 9.45,12.832 0,6.601 -4.12,11.558 -12.37,14.871 -8.29,3.312 -21.86,6.902 -40.76,10.816 -24.37,5.117 -44.66,10.582 -60.87,16.442 -16.21,5.867 -30.35,15.472 -42.34,28.839 -12.05,13.364 -18.03,31.473 -18.03,54.317 0,19.824 5.57,37.84 16.68,54.082 11.13,16.211 27.71,28.973 49.8,38.285 22.05,9.313 48.88,13.965 80.42,13.965 21.63,0 42.9,-2.313 63.79,-6.973 20.84,-4.652 39.24,-11.488 55.16,-20.5 l -31.96,-77.054 c -30.94,15.613 -60.26,23.414 -87.87,23.414 -27.37,0 -41.04,-6.602 -41.04,-19.825 0,-6.297 4.08,-11.023 12.18,-14.199 8.11,-3.148 21.5,-6.531 40.12,-10.121 24.04,-4.516 44.28,-9.703 60.82,-15.562 16.53,-5.84 30.85,-15.379 43.04,-28.61 12.18,-13.222 18.25,-31.246 18.25,-54.082 0,-19.824 -5.57,-37.773 -16.68,-53.848 -11.12,-16.074 -27.71,-28.835 -49.8,-38.285 -22.05,-9.472 -48.87,-14.199 -80.41,-14.199 -26.13,0 -51.61,2.918 -76.39,8.781"
         style="fill:#c62f23;fill-opacity:1;fill-rule:nonzero;stroke:none"
         transform="matrix(0.13333333,0,0,-0.13333333,0,139.4)" />
      <path
         id="path6"
         d="m 2268.1,839.184 h -92.37 v 82.453 h 291.1 v -82.453 h -92.38 V 606.199 H 2268.1 v 232.985"
         style="fill:#c62f23;fill-opacity:1;fill-rule:nonzero;stroke:none"
         transform="matrix(0.13333333,0,0,-0.13333333,0,139.4)" />
      <path
         id="path7"
         d="m 2715.07,694.742 c 10.65,6.465 19.18,15.617 25.48,27.496 6.3,11.86 9.45,25.758 9.45,41.692 0,15.91 -3.15,29.808 -9.45,41.668 -6.3,11.879 -14.83,21.031 -25.48,27.492 -10.65,6.465 -22.61,9.68 -35.8,9.68 -13.25,0 -25.16,-3.215 -35.81,-9.68 -10.7,-6.461 -19.18,-15.613 -25.48,-27.492 -6.3,-11.86 -9.45,-25.758 -9.45,-41.668 0,-15.934 3.15,-29.832 9.45,-41.692 6.3,-11.879 14.78,-21.031 25.48,-27.496 10.65,-6.461 22.56,-9.676 35.81,-9.676 13.19,0 25.15,3.215 35.8,9.676 z m -127.3,-74.578 c -27.05,14.129 -48.22,33.727 -63.55,58.809 -15.28,25.082 -22.98,53.414 -22.98,84.957 0,31.547 7.7,59.847 22.98,84.933 15.33,25.082 36.5,44.68 63.55,58.805 27.06,14.133 57.54,21.172 91.5,21.172 33.95,0 64.43,-7.039 91.48,-21.172 27.01,-14.125 48.23,-33.723 63.51,-58.805 15.33,-25.086 22.98,-53.386 22.98,-84.933 0,-31.543 -7.65,-59.875 -22.98,-84.957 -15.28,-25.082 -36.5,-44.68 -63.51,-58.809 -27.05,-14.101 -57.53,-21.168 -91.48,-21.168 -33.96,0 -64.44,7.067 -91.5,21.168"
         style="fill:#c62f23;fill-opacity:1;fill-rule:nonzero;stroke:none"
         transform="matrix(0.13333333,0,0,-0.13333333,0,139.4)" />
      <path
         id="path8"
         d="M 3416.96,921.637 3316.03,606.199 h -114.01 l -50.91,168.543 -53.64,-168.543 h -114 l -100.94,315.438 h 109.51 l 54.98,-179.34 58.14,179.34 h 97.79 l 54.94,-181.61 58.14,181.61 h 100.93"
         style="fill:#c62f23;fill-opacity:1;fill-rule:nonzero;stroke:none"
         transform="matrix(0.13333333,0,0,-0.13333333,0,139.4)" />
      <path
         id="path9"
         d="m 3628.89,737.781 -30.67,79.305 -30.61,-79.305 z m 29.27,-76.597 h -119.88 l -21.17,-54.985 h -108.16 l 137.9,315.438 h 104.56 l 137.9,-315.438 h -109.97 l -21.18,54.985"
         style="fill:#c62f23;fill-opacity:1;fill-rule:nonzero;stroke:none"
         transform="matrix(0.13333333,0,0,-0.13333333,0,139.4)" />
      <path
         id="path10"
         d="m 4009.25,829.938 c -7.23,6.464 -18.07,9.683 -32.47,9.683 h -38.73 v -73.906 h 38.73 c 14.4,0 25.24,3.242 32.47,9.703 7.18,6.441 10.79,15.543 10.79,27.262 0,11.718 -3.61,20.8 -10.79,27.258 z m -42.38,-144.434 h -28.82 v -79.305 h -106.36 v 315.438 h 151.85 c 29.14,0 54.53,-4.793 76.16,-14.407 21.63,-9.636 38.31,-23.441 50.03,-41.46 11.72,-18.043 17.55,-39.075 17.55,-63.09 0,-22.535 -5.09,-42.223 -15.29,-59.039 -10.23,-16.817 -24.97,-30.18 -44.19,-40.118 l 66.24,-97.324 h -113.53 l -53.64,79.305"
         style="fill:#c62f23;fill-opacity:1;fill-rule:nonzero;stroke:none"
         transform="matrix(0.13333333,0,0,-0.13333333,0,139.4)" />
      <path
         id="path11"
         d="m 4468.63,688.652 v -82.453 h -289.74 v 65.336 l 144.2,167.649 h -139.71 v 82.453 h 278.08 v -65.34 l -144.2,-167.645 h 151.37"
         style="fill:#c62f23;fill-opacity:1;fill-rule:nonzero;stroke:none"
         transform="matrix(0.13333333,0,0,-0.13333333,0,139.4)" />
      <path
         id="path12"
         d="M 4720.87,720.66 V 606.199 h -106.36 v 115.809 l -118.96,199.629 h 112.19 l 64.44,-109.047 64.9,109.047 h 102.74 L 4720.87,720.66"
         style="fill:#c62f23;fill-opacity:1;fill-rule:nonzero;stroke:none"
         transform="matrix(0.13333333,0,0,-0.13333333,0,139.4)" />
      <path
         id="path13"
         d="m 4910,607.777 c -24.77,5.86 -45.17,13.754 -61.05,23.664 l 34.23,77.5 c 15.01,-8.703 31.83,-15.703 50.49,-20.961 18.63,-5.253 36.51,-7.871 53.61,-7.871 14.72,0 25.24,1.411 31.54,4.282 6.3,2.851 9.45,7.136 9.45,12.832 0,6.601 -4.13,11.558 -12.37,14.871 -8.29,3.312 -21.87,6.902 -40.76,10.816 -24.37,5.117 -44.66,10.582 -60.87,16.442 -16.21,5.867 -30.34,15.472 -42.35,28.839 -12.04,13.364 -18.01,31.473 -18.01,54.317 0,19.824 5.55,37.84 16.68,54.082 11.11,16.211 27.69,28.973 49.79,38.285 22.05,9.313 48.87,13.965 80.42,13.965 21.63,0 42.89,-2.313 63.78,-6.973 20.85,-4.652 39.24,-11.488 55.18,-20.5 l -31.97,-77.054 c -30.94,15.613 -60.26,23.414 -87.88,23.414 -27.37,0 -41.03,-6.602 -41.03,-19.825 0,-6.297 4.07,-11.023 12.18,-14.199 8.1,-3.148 21.49,-6.531 40.11,-10.121 24.05,-4.516 44.29,-9.703 60.82,-15.562 16.55,-5.84 30.86,-15.379 43.04,-28.61 12.19,-13.222 18.25,-31.246 18.25,-54.082 0,-19.824 -5.55,-37.773 -16.68,-53.848 -11.11,-16.074 -27.69,-28.835 -49.79,-38.285 -22.05,-9.472 -48.87,-14.199 -80.42,-14.199 -26.13,0 -51.6,2.918 -76.39,8.781"
         style="fill:#c62f23;fill-opacity:1;fill-rule:nonzero;stroke:none"
         transform="matrix(0.13333333,0,0,-0.13333333,0,139.4)" />
      <path
         id="path14"
         d="M 5465.65,688.652 V 606.199 H 5175.9 v 65.336 l 144.21,167.649 h -139.72 v 82.453 h 278.04 v -65.34 L 5314.22,688.652 h 151.43"
         style="fill:#c62f23;fill-opacity:1;fill-rule:nonzero;stroke:none"
         transform="matrix(0.13333333,0,0,-0.13333333,0,139.4)" />
      <path
         id="path15"
         d="m 5789.54,686.406 v -80.207 h -262.28 v 315.438 h 256.4 V 841.43 h -151.84 v -36.946 h 133.41 v -76.617 h -133.41 v -41.461 h 157.72"
         style="fill:#c62f23;fill-opacity:1;fill-rule:nonzero;stroke:none"
         transform="matrix(0.13333333,0,0,-0.13333333,0,139.4)" />
      <path
         id="path16"
         d="M 6169.99,921.637 V 606.199 h -87.45 L 5962.7,749.5 V 606.199 h -103.68 v 315.438 h 87.42 l 119.89,-143.301 v 143.301 h 103.66"
         style="fill:#c62f23;fill-opacity:1;fill-rule:nonzero;stroke:none"
         transform="matrix(0.13333333,0,0,-0.13333333,0,139.4)" />
      <path
         id="path17"
         d="m 6248.28,921.637 h 106.36 V 606.199 h -106.36 v 315.438"
         style="fill:#c62f23;fill-opacity:1;fill-rule:nonzero;stroke:none"
         transform="matrix(0.13333333,0,0,-0.13333333,0,139.4)" />
      <path
         id="path18"
         d="M 6694.98,686.406 V 606.199 H 6432.7 v 315.438 h 256.39 V 841.43 h -151.84 v -36.946 h 133.4 v -76.617 h -133.4 v -41.461 h 157.73"
         style="fill:#c62f23;fill-opacity:1;fill-rule:nonzero;stroke:none"
         transform="matrix(0.13333333,0,0,-0.13333333,0,139.4)" />
      <path
         id="path19"
         d="M 2393.82,423.57 2292.88,108.129 h -114 l -50.96,168.555 -53.59,-168.555 H 1960.32 L 1859.39,423.57 h 109.46 l 54.99,-179.34 58.13,179.34 h 97.79 l 54.99,-181.617 58.13,181.617 h 100.94"
         style="fill:#c62f23;fill-opacity:1;fill-rule:nonzero;stroke:none"
         transform="matrix(0.13333333,0,0,-0.13333333,0,139.4)" />
      <path
         id="path20"
         d="m 2612.98,14.8594 c -12.61,9.9219 -18.91,23.4101 -18.91,40.5508 0,16.5156 6.54,31.25 19.6,44.1523 13.06,12.9215 31.64,23.1325 55.64,30.6445 l 35.61,-22.078 c -18.94,-8.3985 -32.23,-15.9962 -39.88,-22.7657 -7.64,-6.7383 -11.48,-13.7305 -11.48,-20.9375 0,-5.418 2.04,-9.8438 6.06,-13.2891 4.08,-3.457 10.01,-5.1953 17.84,-5.1953 8.7,0 17.55,2.1094 26.55,6.2969 l 12.17,-41.8985 c -5.42,-2.98042 -12.83,-5.46089 -22.28,-7.42964 -9.49,-1.949222 -19.04,-2.9218788 -28.63,-2.9218788 -22.23,0 -39.64,4.9531288 -52.29,14.8711188 z m 91.94,173.4846 V 108.129 H 2442.65 V 423.57 h 256.39 V 343.363 H 2547.2 v -36.945 h 133.41 V 229.797 H 2547.2 v -41.453 h 157.72"
         style="fill:#c62f23;fill-opacity:1;fill-rule:nonzero;stroke:none"
         transform="matrix(0.13333333,0,0,-0.13333333,0,139.4)" />
      <path
         id="path21"
         d="m 2975.64,274.406 h 92.37 V 141.02 c -18.62,-12.922 -40.26,-22.832 -64.9,-29.739 -24.64,-6.902 -48.82,-10.351 -72.54,-10.351 -33.64,0 -63.84,6.972 -90.57,20.937 -26.77,13.985 -47.7,33.516 -62.85,58.594 -15.2,25.09 -22.79,53.555 -22.79,85.402 0,31.825 7.59,60.285 22.79,85.395 15.15,25.062 36.31,44.609 63.51,58.578 27.18,13.965 57.9,20.937 92.17,20.937 30.95,0 58.65,-5.164 83.11,-15.543 24.51,-10.351 44.84,-25.453 61.1,-45.281 l -68.05,-59.937 c -19.82,23.136 -43.45,34.691 -70.78,34.691 -23.39,0 -42.06,-7.062 -55.87,-21.172 -13.8,-14.125 -20.7,-33.351 -20.7,-57.668 0,-23.742 6.81,-42.824 20.47,-57.238 13.67,-14.426 31.92,-21.633 54.76,-21.633 13.52,0 26.45,2.551 38.77,7.668 v 79.746"
         style="fill:#c62f23;fill-opacity:1;fill-rule:nonzero;stroke:none"
         transform="matrix(0.13333333,0,0,-0.13333333,0,139.4)" />
      <path
         id="path22"
         d="M 3140.55,423.57 H 3246.9 V 108.129 H 3140.55 V 423.57"
         style="fill:#c62f23;fill-opacity:1;fill-rule:nonzero;stroke:none"
         transform="matrix(0.13333333,0,0,-0.13333333,0,139.4)" />
      <path
         id="path23"
         d="M 3587.25,188.344 V 108.129 H 3325.01 V 423.57 h 256.4 v -80.207 h -151.85 v -36.945 h 133.36 v -76.621 h -133.36 v -41.453 h 157.69"
         style="fill:#c62f23;fill-opacity:1;fill-rule:nonzero;stroke:none"
         transform="matrix(0.13333333,0,0,-0.13333333,0,139.4)" />
      <path
         id="path24"
         d="m 3656.78,423.57 h 106.36 V 190.59 h 142.39 V 108.129 H 3656.78 V 423.57"
         style="fill:#c62f23;fill-opacity:1;fill-rule:nonzero;stroke:none"
         transform="matrix(0.13333333,0,0,-0.13333333,0,139.4)" />
      <path
         id="path25"
         d="M 4215.95,188.344 V 108.129 H 3953.66 V 423.57 h 256.4 v -80.207 h -151.85 v -36.945 h 133.41 v -76.621 h -133.41 v -41.453 h 157.74"
         style="fill:#c62f23;fill-opacity:1;fill-rule:nonzero;stroke:none"
         transform="matrix(0.13333333,0,0,-0.13333333,0,139.4)" />
      <path
         id="path26"
         d="m 4413.89,212.688 -23.91,-26.59 V 108.129 H 4285.43 V 423.57 h 104.55 V 309.105 l 103.67,114.465 h 115.81 L 4483.27,284.785 4615.76,108.129 h -123.03 l -78.84,104.559"
         style="fill:#c62f23;fill-opacity:1;fill-rule:nonzero;stroke:none"
         transform="matrix(0.13333333,0,0,-0.13333333,0,139.4)" />
    </g>
  </g>
</svg>
